<svg width="24" height="24" viewBox="0 0 24 24" fill="none" xmlns="http://www.w3.org/2000/svg">
<g clip-path="url(#clip0_224_19)">
<path d="M17.8 19.817L15.628 20.955C15.5635 20.9886 15.491 21.0035 15.4186 20.9983C15.3461 20.993 15.2765 20.9677 15.2176 20.9251C15.1587 20.8826 15.1127 20.8245 15.0849 20.7574C15.0571 20.6903 15.0485 20.6167 15.06 20.545L15.475 18.134L13.718 16.427C13.6656 16.3763 13.6284 16.3119 13.6108 16.2411C13.5933 16.1703 13.5959 16.096 13.6186 16.0267C13.6412 15.9573 13.6829 15.8957 13.7388 15.8489C13.7948 15.8021 13.8627 15.772 13.935 15.762L16.363 15.41L17.449 13.217C17.4815 13.1517 17.5315 13.0967 17.5935 13.0583C17.6556 13.0199 17.727 12.9995 17.8 12.9995C17.8729 12.9995 17.9444 13.0199 18.0064 13.0583C18.0685 13.0967 18.1185 13.1517 18.151 13.217L19.237 15.41L21.665 15.762C21.737 15.7724 21.8047 15.8027 21.8604 15.8495C21.9162 15.8964 21.9576 15.9579 21.9802 16.027C22.0028 16.0962 22.0056 16.1704 21.9882 16.241C21.9709 16.3117 21.9341 16.3761 21.882 16.427L20.125 18.134L20.539 20.544C20.5514 20.6159 20.5434 20.6898 20.516 20.7573C20.4885 20.8249 20.4426 20.8834 20.3836 20.9262C20.3245 20.969 20.2547 20.9944 20.1819 20.9995C20.1092 21.0046 20.0364 20.9892 19.972 20.955L17.8 19.817Z" stroke="#0D0D0D" stroke-width="1.5" stroke-linecap="round" stroke-linejoin="round"/>
<path d="M6.1999 19.817L4.0279 20.955C3.96344 20.9886 3.89093 21.0035 3.81846 20.9983C3.74598 20.993 3.6764 20.9677 3.61749 20.9251C3.55857 20.8826 3.51263 20.8245 3.4848 20.7574C3.45697 20.6903 3.44835 20.6167 3.4599 20.545L3.8749 18.134L2.1179 16.427C2.06545 16.3763 2.02832 16.3119 2.01074 16.2411C1.99316 16.1703 1.99583 16.096 2.01846 16.0267C2.04109 15.9573 2.08276 15.8957 2.13871 15.8489C2.19466 15.8021 2.26264 15.772 2.3349 15.762L4.7629 15.41L5.8489 13.217C5.88137 13.1517 5.93143 13.0967 5.99344 13.0583C6.05545 13.0199 6.12695 12.9995 6.1999 12.9995C6.27284 12.9995 6.34434 13.0199 6.40635 13.0583C6.46836 13.0967 6.51842 13.1517 6.5509 13.217L7.6369 15.41L10.0649 15.762C10.1369 15.7724 10.2046 15.8027 10.2603 15.8495C10.3161 15.8964 10.3575 15.9579 10.3801 16.027C10.4027 16.0962 10.4055 16.1704 10.3881 16.241C10.3707 16.3117 10.334 16.3761 10.2819 16.427L8.52489 18.134L8.9389 20.544C8.95132 20.6159 8.94334 20.6898 8.91587 20.7573C8.8884 20.8249 8.84254 20.8834 8.78349 20.9262C8.72444 20.969 8.65456 20.9944 8.58181 20.9995C8.50905 21.0046 8.43633 20.9892 8.37189 20.955L6.1999 19.817Z" stroke="#0D0D0D" stroke-width="1.5" stroke-linecap="round" stroke-linejoin="round"/>
<path d="M11.9999 9.81701L9.82794 10.955C9.76349 10.9886 9.69098 11.0035 9.6185 10.9982C9.54603 10.993 9.47645 10.9677 9.41754 10.9251C9.35862 10.8826 9.31268 10.8245 9.28485 10.7574C9.25702 10.6903 9.2484 10.6167 9.25994 10.545L9.67494 8.13401L7.91795 6.42701C7.8655 6.37631 7.82837 6.31189 7.81079 6.2411C7.7932 6.1703 7.79588 6.096 7.81851 6.02665C7.84114 5.95731 7.8828 5.89572 7.93876 5.84893C7.99471 5.80213 8.06269 5.77201 8.13495 5.76201L10.5629 5.41001L11.6489 3.21701C11.6814 3.15169 11.7315 3.09673 11.7935 3.05831C11.8555 3.0199 11.927 2.99954 11.9999 2.99954C12.0729 2.99954 12.1444 3.0199 12.2064 3.05831C12.2684 3.09673 12.3185 3.15169 12.3509 3.21701L13.4369 5.41001L15.8649 5.76201C15.937 5.77237 16.0047 5.80268 16.0604 5.84952C16.1161 5.89636 16.1576 5.95786 16.1802 6.02705C16.2027 6.09624 16.2055 6.17037 16.1882 6.24105C16.1708 6.31173 16.134 6.37615 16.0819 6.42701L14.3249 8.13401L14.7389 10.544C14.7514 10.6159 14.7434 10.6898 14.7159 10.7573C14.6885 10.8249 14.6426 10.8834 14.5835 10.9262C14.5245 10.969 14.4546 10.9944 14.3819 10.9995C14.3091 11.0046 14.2364 10.9892 14.1719 10.955L11.9999 9.81701Z" stroke="#0D0D0D" stroke-width="1.5" stroke-linecap="round" stroke-linejoin="round"/>
</g>
<defs>
<clipPath id="clip0_224_19">
<rect width="24" height="24" fill="white"/>
</clipPath>
</defs>
</svg>
