<svg width="460" height="481" viewBox="0 0 460 481" fill="none" xmlns="http://www.w3.org/2000/svg">
<g clip-path="url(#clip0_536_1685)">
<path d="M177.944 481C276.219 481 355.887 466.935 355.887 449.586C355.887 432.237 276.219 418.173 177.944 418.173C79.668 418.173 0 432.237 0 449.586C0 466.935 79.668 481 177.944 481Z" fill="#EFEFEF"/>
<path d="M286.094 347.565C382.14 347.565 460 269.76 460 173.783C460 77.8051 382.14 0 286.094 0C190.048 0 112.188 77.8051 112.188 173.783C112.188 269.76 190.048 347.565 286.094 347.565Z" fill="#F8F8F8"/>
<path d="M286.094 317.245C365.383 317.245 429.659 253.015 429.659 173.782C429.659 94.5499 365.383 30.3193 286.094 30.3193C206.805 30.3193 142.529 94.5499 142.529 173.782C142.529 253.015 206.805 317.245 286.094 317.245Z" fill="#F1F1F1"/>
<path d="M286.094 291.363C351.078 291.363 403.758 238.721 403.758 173.783C403.758 108.845 351.078 56.2021 286.094 56.2021C221.11 56.2021 168.43 108.845 168.43 173.783C168.43 238.721 221.11 291.363 286.094 291.363Z" fill="#EBEBEB"/>
<path d="M286.094 258.085C332.686 258.085 370.457 220.342 370.457 173.782C370.457 127.223 332.686 89.4795 286.094 89.4795C239.502 89.4795 201.731 127.223 201.731 173.782C201.731 220.342 239.502 258.085 286.094 258.085Z" fill="#E7E7E7"/>
<path d="M113.728 189.334C113.728 189.334 100.056 227.793 106.133 241.455C112.209 255.118 121.831 268.275 121.831 268.275C121.831 268.275 118.286 191.865 113.728 189.334Z" fill="#D0CDE1"/>
<path opacity="0.1" d="M113.728 189.334C113.728 189.334 100.056 227.793 106.133 241.455C112.209 255.118 121.831 268.275 121.831 268.275C121.831 268.275 118.286 191.865 113.728 189.334Z" fill="black"/>
<path d="M123.35 278.396C123.35 278.396 122.337 288.01 121.83 288.516C121.324 289.022 122.337 290.034 121.83 291.553C121.324 293.071 120.818 295.095 121.83 295.601C122.843 296.107 116.26 340.637 116.26 340.637C116.26 340.637 100.056 361.891 106.639 395.289L108.664 429.193C108.664 429.193 124.362 430.205 124.362 424.638C124.362 424.638 123.35 418.06 123.35 415.024C123.35 411.988 125.882 411.988 124.362 410.469C122.843 408.951 122.843 407.939 122.843 407.939C122.843 407.939 125.375 405.915 124.869 405.409C124.362 404.903 129.426 368.975 129.426 368.975C129.426 368.975 134.996 363.409 134.996 360.373V357.336C134.996 357.336 137.528 350.758 137.528 350.252C137.528 349.746 151.201 318.878 151.201 318.878L156.771 341.143L162.848 373.023C162.848 373.023 165.886 401.867 171.963 413C171.963 413 182.597 449.434 182.597 448.422C182.597 447.41 200.321 444.879 199.814 440.325C199.308 435.771 189.18 372.011 189.18 372.011L191.712 277.384L123.35 278.396Z" fill="#2F2E41"/>
<path d="M109.677 426.663C109.677 426.663 96.0046 453.482 105.12 454.494C114.235 455.506 117.779 455.506 121.83 451.458C124.045 449.245 128.53 446.276 132.141 444.038C134.281 442.734 136.009 440.854 137.128 438.613C138.247 436.372 138.712 433.861 138.468 431.368C138.201 428.892 137.275 426.852 134.997 426.663C128.92 426.157 121.83 420.59 121.83 420.59L109.677 426.663Z" fill="#2F2E41"/>
<path d="M185.129 446.398C185.129 446.398 171.457 473.217 180.572 474.229C189.687 475.241 193.231 475.241 197.283 471.193C199.497 468.98 203.982 466.01 207.593 463.773C209.733 462.469 211.461 460.588 212.58 458.347C213.699 456.106 214.164 453.596 213.92 451.103C213.653 448.627 212.727 446.587 210.449 446.398C204.372 445.892 197.283 440.325 197.283 440.325L185.129 446.398Z" fill="#2F2E41"/>
<path d="M170.679 145.445C182.435 145.445 191.965 135.922 191.965 124.174C191.965 112.426 182.435 102.902 170.679 102.902C158.922 102.902 149.392 112.426 149.392 124.174C149.392 135.922 158.922 145.445 170.679 145.445Z" fill="#FFB8B8"/>
<path d="M156.995 131.164C156.995 131.164 141.79 159.121 140.573 159.121C139.357 159.121 167.942 168.237 167.942 168.237C167.942 168.237 175.848 141.495 177.065 139.064L156.995 131.164Z" fill="#FFB8B8"/>
<path d="M180.318 161.756C180.318 161.756 149.935 145.057 146.897 145.563C143.858 146.069 111.449 174.407 111.956 186.045C112.462 197.684 116.513 216.913 116.513 216.913C116.513 216.913 118.032 270.552 121.071 271.058C124.109 271.564 120.564 280.673 121.577 280.673C122.59 280.673 192.472 280.673 192.978 279.155C193.484 277.637 180.318 161.756 180.318 161.756Z" fill="#D0CDE1"/>
<path d="M197.282 281.938C197.282 281.938 206.904 311.288 198.801 310.276C190.699 309.264 187.155 284.975 187.155 284.975L197.282 281.938Z" fill="#FFB8B8"/>
<path d="M171.457 159.985C171.457 159.985 152.72 164.034 155.759 189.335C158.797 214.636 164.367 239.938 164.367 239.938L183.104 280.926L185.129 288.517L198.802 284.974L188.674 226.275C188.674 226.275 185.129 163.528 180.572 161.503C177.698 160.279 174.573 159.759 171.457 159.985Z" fill="#D0CDE1"/>
<path opacity="0.1" d="M160.063 239.179L183.357 280.673L163.731 236.95L160.063 239.179Z" fill="black"/>
<path d="M191.871 117.91L191.941 116.285L195.177 117.09C195.143 116.568 194.995 116.06 194.745 115.6C194.494 115.141 194.147 114.742 193.727 114.429L197.174 114.237C194.282 110.13 190.586 106.651 186.311 104.011C182.036 101.37 177.27 99.6233 172.3 98.8751C164.844 97.7953 156.543 99.3579 151.43 104.887C148.95 107.569 147.392 110.98 146.284 114.459C144.242 120.868 143.826 128.507 148.083 133.716C152.409 139.01 159.966 140.048 166.775 140.703C169.17 140.933 171.681 141.148 173.901 140.219C174.148 137.674 173.822 135.107 172.947 132.705C172.583 131.961 172.408 131.139 172.44 130.311C172.743 128.287 175.445 127.777 177.474 128.051C179.504 128.324 181.944 128.742 183.278 127.189C184.197 126.119 184.142 124.562 184.264 123.157C184.595 119.333 191.836 118.712 191.871 117.91Z" fill="#2F2E41"/>
<path d="M322.433 453.91C336.131 453.91 347.235 442.813 347.235 429.125C347.235 415.436 336.131 404.34 322.433 404.34C308.735 404.34 297.63 415.436 297.63 429.125C297.63 442.813 308.735 453.91 322.433 453.91Z" fill="#FFC000"/>
<path d="M31.1472 445.264C44.8453 445.264 55.9497 434.167 55.9497 420.479C55.9497 406.79 44.8453 395.694 31.1472 395.694C17.4492 395.694 6.34473 406.79 6.34473 420.479C6.34473 434.167 17.4492 445.264 31.1472 445.264Z" fill="#FFC000"/>
<path d="M31.1472 405.493C41.0226 405.493 49.0281 397.493 49.0281 387.625C49.0281 377.756 41.0226 369.756 31.1472 369.756C21.2719 369.756 13.2664 377.756 13.2664 387.625C13.2664 397.493 21.2719 405.493 31.1472 405.493Z" fill="#FFC000"/>
<path d="M31.1474 372.638C38.1557 372.638 43.8371 366.961 43.8371 359.958C43.8371 352.954 38.1557 347.277 31.1474 347.277C24.1391 347.277 18.4578 352.954 18.4578 359.958C18.4578 366.961 24.1391 372.638 31.1474 372.638Z" fill="#FFC000"/>
</g>
<defs>
<clipPath id="clip0_536_1685">
<rect width="460" height="481" fill="white"/>
</clipPath>
</defs>
</svg>
